<svg width="66" height="37" viewBox="0 0 66 37" fill="none" xmlns="http://www.w3.org/2000/svg">
<path fill-rule="evenodd" clip-rule="evenodd" d="M12.8365 9.14401C15.1645 9.14401 17.0485 7.20001 17.0485 4.86001C17.0485 2.52001 15.1645 0.588013 12.8365 0.588013C10.4725 0.588013 8.61253 2.52001 8.61253 4.86001C8.61253 7.20001 10.4725 9.14401 12.8365 9.14401ZM12.8245 7.36801C11.4325 7.36801 10.5085 6.24001 10.5085 4.86001C10.5085 3.48001 11.4325 2.36401 12.8245 2.36401C14.2045 2.36401 15.1525 3.48001 15.1525 4.86001C15.1525 6.24001 14.2045 7.36801 12.8245 7.36801ZM5.316 5.42401L2.676 0.732013H0.947998V9.00001H2.832V4.24801L5.544 9.00001H7.2V0.732013H5.316V5.42401ZM57.283 26C61.7746 26 64.9283 23.6227 65 18.7209H58.3103V19.9621H63.2798C63.1364 22.8443 60.6278 24.6957 57.283 24.6957C53.4842 24.6957 50.5455 21.8976 50.5455 18.5316C50.5455 15.1655 53.4842 12.3043 57.283 12.3043C58.8837 12.3043 60.3411 12.8303 61.4879 13.6297L62.5392 12.683C61.1295 11.6522 59.3138 11 57.283 11C52.6241 11 48.9686 14.4081 48.9686 18.5316C48.9686 22.6339 52.6241 26 57.283 26ZM8.00028 17.6059L2.86356 11.2525H1L7.18796 18.9523V25.7475H8.76482V18.9523L15.0483 11.2525H13.1609L8.00028 17.6059ZM29.1432 25.7475L22.8835 11.2525H21.2111L14.9276 25.7475H16.6L18.2485 21.8976H25.8461L27.4946 25.7475H29.1432ZM22.0473 13.0827L25.2966 20.6564H18.798L22.0473 13.0827ZM34.3605 11.2525L42.7704 23.3072V11.2525H44.3473V25.7475H42.7226L34.2888 13.6718V25.7475H32.712V11.2525H34.3605ZM30.3024 31.86C30.3024 34.2 28.4184 36.144 26.0904 36.144C23.7264 36.144 21.8664 34.2 21.8664 31.86C21.8664 29.52 23.7264 27.588 26.0904 27.588C28.4184 27.588 30.3024 29.52 30.3024 31.86ZM23.7624 31.86C23.7624 33.24 24.6864 34.368 26.0784 34.368C27.4584 34.368 28.4064 33.24 28.4064 31.86C28.4064 30.48 27.4584 29.364 26.0784 29.364C24.6864 29.364 23.7624 30.48 23.7624 31.86ZM15.948 27.732H21.18V29.376H17.832V31.116H20.484V32.748H17.832V36H15.948V27.732ZM38.0814 36L35.9574 32.988C37.0254 32.748 37.8894 31.632 37.8894 30.468C37.8894 29.1 37.0254 27.732 35.1054 27.732H31.7214V36H33.6054V33.096H33.9894L35.8854 36H38.0814ZM34.8534 29.376C35.6214 29.376 35.9934 29.964 35.9934 30.516C35.9934 31.068 35.6334 31.608 34.8054 31.608H33.6054V29.376H34.8534ZM43.9494 27.732L46.5894 32.424V27.732H48.4734V36H46.8174L44.1054 31.248V36H42.2214V27.732H43.9494ZM53.522 30.78L51.614 27.732H49.37L52.586 32.268V36H54.482V32.304L57.71 27.732H55.466L53.522 30.78ZM65.2066 34.308C64.4506 35.412 63.1786 36.144 61.7266 36.144C59.3986 36.144 57.5266 34.2 57.5266 31.848C57.5266 29.52 59.3986 27.588 61.7266 27.588C63.1786 27.588 64.4506 28.32 65.2066 29.424L63.7426 30.444C63.3106 29.772 62.6746 29.364 61.8106 29.364C60.4186 29.364 59.4226 30.48 59.4226 31.848C59.4226 33.216 60.3826 34.368 61.7986 34.368C62.6746 34.368 63.3106 33.96 63.7426 33.288L65.2066 34.308Z" fill="black"/>
</svg>
