<svg width="110" height="60" viewBox="0 0 110 60" fill="none" xmlns="http://www.w3.org/2000/svg">
<path fill-rule="evenodd" clip-rule="evenodd" d="M20.183 14.4381C24.1352 14.4381 27.3336 11.1576 27.3336 7.20891C27.3336 3.26021 24.1352 0 20.183 0C16.1697 0 13.012 3.26021 13.012 7.20891C13.012 11.1576 16.1697 14.4381 20.183 14.4381ZM20.1626 11.4411C17.7994 11.4411 16.2308 9.53763 16.2308 7.20891C16.2308 4.88019 17.7994 2.99696 20.1626 2.99696C22.5054 2.99696 24.1148 4.88019 24.1148 7.20891C24.1148 9.53763 22.5054 11.4411 20.1626 11.4411ZM7.41549 8.16065L2.9336 0.242998H0V14.1951H3.19844V6.17617L7.80257 14.1951H10.6139V0.242998H7.41549V8.16065ZM95.6396 42.8822C103.265 42.8822 108.619 38.8706 108.741 30.5989H97.3837V32.6934H105.82C105.577 37.5571 101.318 40.6811 95.6396 40.6811C89.1904 40.6811 84.2015 35.9595 84.2015 30.2794C84.2015 24.5992 89.1904 19.7711 95.6396 19.7711C98.3571 19.7711 100.831 20.6586 102.778 22.0076L104.563 20.4101C102.17 18.6706 99.0872 17.57 95.6396 17.57C87.7302 17.57 81.5245 23.3212 81.5245 30.2794C81.5245 37.2021 87.7302 42.8822 95.6396 42.8822ZM11.9731 28.7173L3.25251 17.996H0.0887784L10.594 30.9894V42.4562H13.271V30.9894L23.9385 17.996H20.7342L11.9731 28.7173ZM47.867 42.4562L37.2401 17.996H34.4009L23.7334 42.4562H26.5727L29.3714 35.9595H42.2697L45.0683 42.4562H47.867ZM35.8205 21.0846L41.3368 33.865H30.3043L35.8205 21.0846ZM56.7245 17.996L71.0018 38.3381V17.996H73.6788V42.4562H70.9207L56.6028 22.0786V42.4562H53.9258V17.996H56.7245ZM49.8345 52.7708C49.8345 56.7195 46.6361 60 42.6839 60C38.6705 60 35.5128 56.7195 35.5128 52.7708C35.5128 48.8221 38.6705 45.5619 42.6839 45.5619C46.6361 45.5619 49.8345 48.8221 49.8345 52.7708ZM38.7317 52.7708C38.7317 55.0995 40.3003 57.003 42.6635 57.003C45.0063 57.003 46.6157 55.0995 46.6157 52.7708C46.6157 50.4421 45.0063 48.5589 42.6635 48.5589C40.3003 48.5589 38.7317 50.4421 38.7317 52.7708ZM25.4652 45.8049H34.3475V48.5791H28.6636V51.5153H33.1659V54.2693H28.6636V59.757H25.4652V45.8049ZM63.0408 59.757L59.4349 54.6743C61.2481 54.2693 62.7149 52.3861 62.7149 50.4219C62.7149 48.1134 61.2481 45.8049 57.9885 45.8049H52.2435V59.757H55.442V54.8565H56.0939L59.3127 59.757H63.0408ZM57.5607 48.5791C58.8645 48.5791 59.4961 49.5714 59.4961 50.5029C59.4961 51.4343 58.8849 52.3456 57.4792 52.3456H55.442V48.5791H57.5607ZM73.0028 45.8049L77.4847 53.7226V45.8049H80.6832V59.757H77.8718L73.2677 51.7381V59.757H70.0692V45.8049H73.0028ZM89.254 50.9483L86.0148 45.8049H82.2052L87.665 53.4593V59.757H90.8838V53.5201L96.3639 45.8049H92.5543L89.254 50.9483ZM109.091 56.9018C107.807 58.7647 105.648 60 103.183 60C99.2307 60 96.0526 56.7195 96.0526 52.7506C96.0526 48.8221 99.2307 45.5619 103.183 45.5619C105.648 45.5619 107.807 46.7971 109.091 48.6601L106.605 50.3814C105.872 49.2474 104.792 48.5589 103.325 48.5589C100.962 48.5589 99.2714 50.4421 99.2714 52.7506C99.2714 55.059 100.901 57.003 103.305 57.003C104.792 57.003 105.872 56.3145 106.605 55.1805L109.091 56.9018Z" fill="white"/>
</svg>
