<?xml version="1.0" standalone="no"?>
<!DOCTYPE svg PUBLIC "-//W3C//DTD SVG 20010904//EN"
 "http://www.w3.org/TR/2001/REC-SVG-20010904/DTD/svg10.dtd">
<svg version="1.0" xmlns="http://www.w3.org/2000/svg"
 width="1056.000000pt" height="1056.000000pt" viewBox="0 0 1056.000000 1056.000000"
 preserveAspectRatio="xMidYMid meet">
<metadata>
Created by potrace 1.11, written by Peter Selinger 2001-2013
</metadata>
<g transform="translate(0.000000,1056.000000) scale(0.100000,-0.100000)"
fill="#000000" stroke="none">
<path d="M1914 8130 c-346 -70 -578 -406 -529 -766 33 -245 223 -477 450 -550
90 -29 172 -38 290 -33 167 8 392 147 492 305 32 49 75 153 94 224 12 46 20
270 9 270 -3 0 -7 10 -7 22 -4 46 -57 171 -102 241 -150 230 -424 343 -697
287z m261 -287 c11 -6 33 -17 49 -24 44 -21 111 -85 139 -132 37 -62 60 -153
59 -228 0 -73 -27 -182 -48 -200 -8 -6 -14 -17 -14 -25 0 -21 -92 -107 -141
-131 -24 -13 -65 -27 -90 -32 -54 -12 -178 -6 -193 9 -5 5 -16 10 -24 10 -17
0 -95 53 -128 88 -29 31 -65 98 -84 156 -18 55 -20 193 -4 239 7 20 13 39 13
42 1 13 31 76 43 90 102 121 177 157 318 151 47 -2 95 -8 105 -13z"/>
<path d="M167 8122 c-14 -3 -16 -64 -16 -663 l1 -659 31 -1 c96 -1 259 1 265
5 4 2 7 171 6 375 0 204 1 371 2 371 2 0 114 -192 159 -273 14 -26 55 -98 91
-159 35 -61 64 -112 64 -113 0 -7 104 -182 114 -193 10 -10 47 -13 136 -13 67
0 124 2 127 4 3 4 7 1228 4 1307 -1 13 -25 15 -151 15 l-150 0 0 -375 -1 -375
-34 60 c-54 97 -61 109 -64 120 -1 6 -8 17 -15 25 -7 8 -29 44 -48 80 -45 82
-86 155 -111 200 -11 19 -33 60 -50 90 -17 30 -38 66 -47 80 -10 14 -20 35
-24 47 -13 41 -32 47 -155 47 -65 1 -125 0 -134 -2z"/>
<path d="M9178 6485 c-3 -3 -49 -7 -104 -10 -113 -5 -239 -27 -334 -58 -36
-12 -67 -22 -70 -22 -18 -5 -126 -52 -160 -70 -14 -7 -41 -21 -60 -32 -19 -10
-37 -20 -40 -23 -3 -3 -32 -23 -65 -45 -83 -55 -232 -205 -299 -298 -106 -150
-183 -346 -203 -517 -12 -105 -6 -256 14 -345 2 -11 5 -29 7 -40 6 -43 50
-164 88 -239 77 -156 176 -278 318 -395 57 -47 166 -121 179 -121 5 0 11 -4
13 -8 10 -25 284 -130 383 -147 11 -2 45 -9 75 -15 43 -8 154 -18 260 -22 3 0
7 0 10 1 3 1 46 4 95 7 87 4 157 11 163 15 3 2 11 4 67 14 66 11 60 9 140 36
201 65 389 190 508 338 106 132 191 340 221 544 11 71 16 207 9 208 -5 1 -245
2 -535 3 l-528 1 0 -100 0 -100 395 1 c270 0 395 -3 396 -10 2 -13 2 -11 -5
-66 -3 -25 -13 -70 -22 -100 -9 -30 -15 -55 -14 -55 3 0 -63 -129 -70 -135 -3
-3 -18 -23 -35 -45 -114 -155 -339 -285 -555 -321 -19 -3 -55 -10 -80 -14 -67
-13 -285 -10 -365 5 -286 51 -519 185 -681 390 -21 28 -41 52 -44 55 -5 5 -17
26 -55 94 -32 59 -71 169 -90 256 -15 68 -22 233 -11 285 2 11 7 40 12 65 4
25 8 47 9 50 79 305 308 560 620 688 147 60 271 82 450 77 167 -4 191 -7 317
-46 87 -26 260 -106 314 -145 21 -14 26 -12 103 57 45 39 81 75 81 78 0 18
-187 123 -310 175 -57 23 -163 54 -232 66 -97 18 -98 18 -182 25 -44 3 -83 8
-87 10 -3 3 -8 2 -11 0z"/>
<path d="M202 6442 l-42 -3 32 -42 c18 -23 38 -46 44 -52 6 -5 24 -28 40 -50
16 -21 36 -47 44 -56 16 -17 28 -31 80 -99 19 -24 43 -53 53 -65 10 -11 37
-45 60 -75 23 -30 50 -64 60 -75 10 -11 37 -45 60 -75 23 -30 47 -59 53 -65 5
-5 28 -32 49 -60 55 -69 59 -74 100 -125 20 -25 42 -52 48 -60 7 -8 57 -71
112 -140 55 -69 103 -129 108 -135 4 -5 16 -21 27 -34 19 -23 20 -41 20 -567
l0 -543 73 0 c40 0 77 0 82 -1 6 -2 15 -1 20 0 6 1 25 3 44 3 l35 2 -1 542 0
542 130 158 c71 87 166 203 210 258 44 55 83 102 86 105 3 3 42 50 86 105 44
55 82 102 85 105 3 3 24 27 45 55 53 65 63 78 131 161 33 39 73 88 89 109 17
20 35 42 40 49 94 109 103 122 82 123 -39 3 -172 4 -182 3 -5 -1 -29 -1 -52 0
-49 2 -47 3 -132 -105 -35 -44 -67 -82 -70 -85 -4 -3 -40 -48 -81 -100 -41
-52 -83 -104 -93 -115 -10 -11 -37 -45 -60 -75 -23 -30 -45 -57 -48 -60 -4 -3
-69 -82 -145 -176 -270 -332 -241 -301 -258 -283 -7 8 -71 86 -142 174 -294
365 -378 470 -384 475 -3 3 -55 67 -115 143 -177 224 -158 207 -243 208 -40 1
-75 -1 -78 -4 -3 -3 -18 -2 -32 1 -15 4 -46 6 -70 4z"/>
<path d="M3484 6441 c-2 -2 -23 -5 -46 -5 -34 -1 -44 -6 -55 -26 -18 -35 -66
-143 -97 -217 -14 -35 -37 -87 -51 -117 -14 -30 -25 -57 -25 -60 0 -3 -13 -34
-29 -68 -15 -35 -63 -144 -106 -243 -43 -99 -86 -200 -97 -225 -11 -25 -26
-58 -33 -75 -65 -150 -320 -738 -331 -765 -9 -19 -22 -48 -29 -65 -8 -16 -34
-77 -59 -135 -24 -58 -55 -130 -69 -160 -14 -31 -35 -79 -46 -107 l-20 -52 63
0 c34 0 66 -1 72 -2 5 -1 14 0 19 1 6 1 35 2 65 3 30 1 55 7 55 12 1 6 6 20
13 31 6 12 8 24 5 28 -3 3 -1 6 5 6 7 0 12 5 12 12 0 15 213 511 222 519 4 3
279 5 610 5 l602 -1 37 -85 c21 -47 42 -96 48 -110 9 -23 20 -48 71 -165 9
-22 37 -86 61 -143 39 -91 47 -104 74 -111 17 -4 43 -5 59 -1 17 3 54 3 84 0
29 -4 55 -3 58 1 3 5 11 6 19 2 8 -3 15 -4 15 -2 0 7 -58 145 -93 222 -20 42
-34 77 -32 77 2 0 -6 21 -19 48 -13 26 -36 76 -51 112 -31 75 -61 143 -81 184
-8 16 -14 35 -14 43 0 7 -5 13 -10 13 -6 0 -9 3 -8 8 1 8 -9 39 -22 63 -4 9
-24 55 -44 103 -20 47 -45 107 -57 134 -12 26 -27 61 -34 77 -175 405 -309
716 -319 740 -67 150 -126 293 -126 303 0 7 -4 12 -10 12 -5 0 -10 8 -10 18 0
10 -4 22 -8 28 -5 5 -19 35 -32 67 -16 41 -29 59 -45 63 -28 7 -155 11 -161 5z
m57 -328 c6 -16 10 -30 11 -33 0 -3 3 -9 8 -15 4 -5 27 -55 50 -110 23 -55 48
-116 57 -135 8 -19 22 -50 29 -67 8 -18 20 -48 28 -66 8 -18 42 -98 76 -177
34 -80 70 -163 80 -185 43 -97 160 -376 160 -383 0 -4 -231 -7 -512 -7 -334 0
-513 4 -512 10 0 10 13 43 39 100 7 16 64 147 125 290 61 143 115 269 120 280
5 11 18 40 28 65 151 352 197 460 200 460 1 0 7 -12 13 -27z"/>
<path d="M5266 6442 c-4 -4 -13 -7 -19 -7 -9 0 -12 -282 -12 -1156 l-1 -1156
34 -1 c18 -1 37 -4 42 -7 5 -3 11 -2 14 3 2 4 32 5 65 2 109 -10 98 -121 97
968 -1 523 1 952 4 952 3 0 30 -36 60 -80 30 -44 61 -88 68 -97 7 -10 44 -63
82 -118 39 -55 76 -109 84 -120 28 -39 152 -216 196 -281 25 -36 50 -71 55
-77 6 -7 35 -48 65 -92 30 -44 202 -291 383 -550 180 -258 333 -478 339 -487
10 -14 30 -16 142 -15 l131 2 0 1155 0 1155 -45 1 c-25 1 -54 3 -65 4 -11 1
-47 2 -81 1 l-60 -1 1 -952 c0 -524 -1 -956 -3 -961 -4 -8 -39 41 -308 428
-253 363 -414 594 -471 675 -29 41 -61 86 -70 100 -10 14 -85 122 -168 240
-82 119 -168 243 -190 275 -22 33 -42 62 -46 65 -3 3 -26 36 -51 73 -26 39
-49 64 -53 58 -3 -6 -11 -9 -16 -5 -9 5 -90 6 -134 2 -6 -1 -22 2 -36 5 -14 4
-29 3 -33 -1z"/>
<path d="M4108 3824 c-2 -1 -19 -4 -38 -7 -31 -5 -66 -13 -95 -21 -5 -2 -23
-8 -40 -15 -46 -18 -60 -22 -64 -21 -2 1 -7 -2 -10 -7 -3 -5 -25 -20 -48 -33
-24 -13 -43 -27 -43 -32 0 -4 -5 -8 -10 -8 -14 0 -116 -107 -148 -156 -30 -46
-73 -145 -91 -213 -16 -57 -20 -96 -17 -180 4 -115 6 -131 30 -207 44 -140
170 -297 301 -372 228 -132 489 -126 705 17 151 99 249 245 296 442 8 33 12
232 5 244 -3 6 -7 21 -9 35 -4 37 -39 127 -75 195 -34 65 -171 209 -222 235
-16 8 -32 17 -35 20 -19 19 -150 67 -205 75 -41 7 -183 13 -187 9z m210 -312
c96 -47 139 -91 188 -193 52 -108 49 -265 -7 -374 -28 -53 -97 -135 -115 -135
-8 0 -14 -4 -14 -8 0 -10 -60 -36 -113 -51 -49 -12 -152 -8 -203 10 -143 49
-238 182 -248 350 -12 187 76 341 230 404 78 32 215 30 282 -3z"/>
<path d="M9775 3818 c-315 -47 -562 -331 -568 -652 -2 -100 7 -166 31 -237 23
-65 69 -157 88 -177 8 -7 14 -16 14 -20 0 -4 24 -32 53 -63 171 -179 416 -250
651 -189 89 23 196 77 266 136 48 40 115 117 115 133 0 5 -22 24 -50 43 -27
19 -78 54 -112 77 l-63 44 -19 -24 c-40 -50 -57 -67 -97 -92 -146 -91 -354
-63 -467 63 -43 48 -82 117 -96 170 -3 14 -6 71 -5 127 0 94 3 106 33 165 78
154 190 221 359 214 107 -4 166 -31 245 -111 50 -51 55 -54 73 -39 10 8 61 44
112 80 50 36 92 68 92 72 0 16 -129 140 -181 175 -64 42 -154 81 -226 97 -61
14 -183 18 -248 8z"/>
<path d="M2568 3802 c-13 -3 -15 -78 -14 -659 1 -648 1 -656 21 -660 18 -3 48
-4 148 -2 17 0 51 0 75 -2 23 -1 45 1 49 5 4 4 7 121 7 262 l0 255 35 -1 c20
0 72 0 117 0 44 1 85 0 90 -1 5 -1 14 -1 19 1 6 1 44 1 86 0 l76 -1 0 126 c0
98 -3 128 -14 132 -7 3 -102 6 -211 7 l-197 1 0 135 0 135 268 3 268 2 -3 132
-3 132 -401 1 c-220 0 -407 -1 -416 -3z"/>
<path d="M5087 3798 c-9 -5 -12 -178 -12 -663 l0 -656 68 3 c37 2 67 1 67 -2
0 -5 69 -3 135 3 l30 2 0 228 c0 125 3 228 8 228 9 2 44 2 57 0 6 0 10 -7 10
-14 0 -8 9 -22 20 -32 11 -10 20 -22 20 -27 0 -11 42 -72 53 -76 4 -2 7 -7 7
-12 0 -5 28 -51 61 -102 34 -51 77 -117 96 -145 l35 -53 54 3 c30 1 54 0 54
-3 0 -3 35 -4 77 -2 43 1 97 3 121 2 l43 0 -18 27 c-20 32 -98 143 -111 158
-7 8 -59 83 -132 189 -8 11 -28 38 -44 60 -28 37 -29 39 -11 52 10 7 21 11 25
9 4 -3 13 2 20 10 7 8 18 15 25 15 12 0 34 17 88 67 75 69 128 193 128 297 0
224 -140 397 -351 433 -51 8 -610 9 -623 1z m597 -291 c109 -84 93 -258 -29
-308 -31 -12 -274 -21 -276 -10 -3 21 -4 319 0 335 4 17 14 18 136 14 126 -3
134 -5 169 -31z"/>
<path d="M6767 3800 c-10 -4 -12 -150 -12 -657 0 -358 3 -654 7 -658 4 -4 26
-7 50 -6 24 1 69 3 101 4 31 1 57 0 57 -3 0 -3 19 -4 43 -2 l43 4 -1 361 c0
199 1 368 4 375 3 11 30 -34 166 -273 12 -22 56 -98 96 -168 41 -71 86 -150
100 -175 73 -130 59 -117 127 -117 34 0 62 -2 62 -5 0 -3 33 -3 72 0 l73 5 0
657 c0 442 -3 659 -10 661 -9 2 -252 1 -280 -2 -7 -1 -11 -122 -10 -366 0
-201 -3 -365 -6 -365 -3 0 -27 39 -54 88 -68 123 -78 140 -114 200 -17 29 -31
55 -31 57 0 2 -31 58 -70 125 -38 67 -70 123 -70 125 0 3 -70 125 -77 134 -5
7 -251 7 -266 1z"/>
<path d="M7917 3802 c-13 -3 -4 -20 39 -80 31 -42 146 -205 257 -362 l202
-284 -1 -297 0 -298 78 2 c43 1 78 -2 78 -6 0 -5 4 -6 8 -3 5 3 38 6 74 7 l65
2 -1 286 c-1 160 3 295 8 306 9 19 164 244 176 255 3 3 30 41 60 85 30 44 58
85 63 90 4 6 41 57 82 115 41 58 78 110 82 115 23 29 42 64 35 67 -6 3 -284 2
-333 -1 -10 -1 -59 -67 -120 -163 -57 -90 -122 -191 -144 -225 -22 -34 -45
-69 -50 -79 -10 -15 -16 -10 -45 37 -19 29 -39 61 -45 70 -40 70 -141 225
-147 227 -4 2 -8 9 -9 15 0 7 -17 37 -37 67 l-37 54 -161 1 c-88 0 -168 -1
-177 -3z"/>
</g>
</svg>
